<svg width="197" height="48" viewBox="0 0 197 48" fill="none" xmlns="http://www.w3.org/2000/svg">
<rect x="165" y="5" width="8.94966" height="38.0361" rx="4.47483" fill="#1E2330"/>
<rect x="189.036" y="36.6411" width="8.94966" height="23.6659" rx="4.47483" transform="rotate(135 189.036 36.6411)" fill="#1E2330"/>
<rect x="186.526" y="8.39624" width="8.94966" height="23.0503" rx="4.47483" transform="rotate(60 186.526 8.39624)" fill="#1E2330"/>
<rect x="197" y="20.4585" width="8.94966" height="23.0503" rx="4.47483" transform="rotate(90 197 20.4585)" fill="#1E2330"/>
<path d="M15.584 23.48C16.8853 23.7573 17.9307 24.408 18.72 25.432C19.5093 26.4347 19.904 27.5867 19.904 28.888C19.904 30.7653 19.2427 32.2587 17.92 33.368C16.6187 34.456 14.7947 35 12.448 35H1.984V12.536H12.096C14.3787 12.536 16.16 13.0587 17.44 14.104C18.7413 15.1493 19.392 16.568 19.392 18.36C19.392 19.6827 19.04 20.7813 18.336 21.656C17.6533 22.5307 16.736 23.1387 15.584 23.48ZM7.456 21.624H11.04C11.936 21.624 12.6187 21.432 13.088 21.048C13.5787 20.6427 13.824 20.056 13.824 19.288C13.824 18.52 13.5787 17.9333 13.088 17.528C12.6187 17.1227 11.936 16.92 11.04 16.92H7.456V21.624ZM11.488 30.584C12.4053 30.584 13.1093 30.3813 13.6 29.976C14.112 29.5493 14.368 28.9413 14.368 28.152C14.368 27.3627 14.1013 26.744 13.568 26.296C13.056 25.848 12.3413 25.624 11.424 25.624H7.456V30.584H11.488ZM28.5498 20.12C29.1898 19.1387 29.9898 18.3707 30.9498 17.816C31.9098 17.24 32.9764 16.952 34.1498 16.952V22.744H32.6458C31.2804 22.744 30.2564 23.0427 29.5738 23.64C28.8911 24.216 28.5498 25.24 28.5498 26.712V35H23.0778V17.144H28.5498V20.12ZM35.6773 26.04C35.6773 24.2053 36.0186 22.5947 36.7013 21.208C37.4053 19.8213 38.3546 18.7547 39.5493 18.008C40.7439 17.2613 42.0773 16.888 43.5493 16.888C44.8079 16.888 45.9066 17.144 46.8453 17.656C47.8053 18.168 48.5413 18.84 49.0533 19.672V17.144H54.5253V35H49.0533V32.472C48.5199 33.304 47.7733 33.976 46.8133 34.488C45.8746 35 44.7759 35.256 43.5173 35.256C42.0666 35.256 40.7439 34.8827 39.5493 34.136C38.3546 33.368 37.4053 32.2907 36.7013 30.904C36.0186 29.496 35.6773 27.8747 35.6773 26.04ZM49.0533 26.072C49.0533 24.7067 48.6693 23.6293 47.9013 22.84C47.1546 22.0507 46.2373 21.656 45.1493 21.656C44.0613 21.656 43.1333 22.0507 42.3653 22.84C41.6186 23.608 41.2453 24.6747 41.2453 26.04C41.2453 27.4053 41.6186 28.4933 42.3653 29.304C43.1333 30.0933 44.0613 30.488 45.1493 30.488C46.2373 30.488 47.1546 30.0933 47.9013 29.304C48.6693 28.5147 49.0533 27.4373 49.0533 26.072ZM69.364 16.952C71.4547 16.952 73.1187 17.6347 74.356 19C75.6147 20.344 76.244 22.2 76.244 24.568V35H70.804V25.304C70.804 24.1093 70.4947 23.1813 69.876 22.52C69.2573 21.8587 68.4253 21.528 67.38 21.528C66.3347 21.528 65.5027 21.8587 64.884 22.52C64.2653 23.1813 63.956 24.1093 63.956 25.304V35H58.484V17.144H63.956V19.512C64.5107 18.7227 65.2573 18.104 66.196 17.656C67.1347 17.1867 68.1907 16.952 69.364 16.952ZM78.9585 26.072C78.9585 24.216 79.3318 22.5947 80.0785 21.208C80.8465 19.8213 81.9025 18.7547 83.2465 18.008C84.6118 17.2613 86.1692 16.888 87.9185 16.888C90.1585 16.888 92.0252 17.4747 93.5185 18.648C95.0332 19.8213 96.0252 21.4747 96.4945 23.608H90.6705C90.1798 22.2427 89.2305 21.56 87.8225 21.56C86.8198 21.56 86.0198 21.9547 85.4225 22.744C84.8252 23.512 84.5265 24.6213 84.5265 26.072C84.5265 27.5227 84.8252 28.6427 85.4225 29.432C86.0198 30.2 86.8198 30.584 87.8225 30.584C89.2305 30.584 90.1798 29.9013 90.6705 28.536H96.4945C96.0252 30.6267 95.0332 32.2693 93.5185 33.464C92.0038 34.6587 90.1372 35.256 87.9185 35.256C86.1692 35.256 84.6118 34.8827 83.2465 34.136C81.9025 33.3893 80.8465 32.3227 80.0785 30.936C79.3318 29.5493 78.9585 27.928 78.9585 26.072ZM110.398 16.952C112.446 16.952 114.088 17.6347 115.326 19C116.563 20.344 117.182 22.2 117.182 24.568V35H111.742V25.304C111.742 24.1093 111.432 23.1813 110.814 22.52C110.195 21.8587 109.363 21.528 108.318 21.528C107.272 21.528 106.44 21.8587 105.822 22.52C105.203 23.1813 104.894 24.1093 104.894 25.304V35H99.4215V11.32H104.894V19.544C105.448 18.7547 106.206 18.1253 107.166 17.656C108.126 17.1867 109.203 16.952 110.398 16.952ZM123.736 15.288C122.776 15.288 121.987 15.0107 121.368 14.456C120.771 13.88 120.472 13.176 120.472 12.344C120.472 11.4907 120.771 10.7867 121.368 10.232C121.987 9.656 122.776 9.368 123.736 9.368C124.675 9.368 125.443 9.656 126.04 10.232C126.659 10.7867 126.968 11.4907 126.968 12.344C126.968 13.176 126.659 13.88 126.04 14.456C125.443 15.0107 124.675 15.288 123.736 15.288ZM126.456 17.144V35H120.984V17.144H126.456ZM139.382 21.688H136.438V35H130.966V21.688H128.982V17.144H130.966V16.632C130.966 14.4347 131.595 12.7707 132.854 11.64C134.112 10.488 135.958 9.912 138.39 9.912C138.795 9.912 139.094 9.92267 139.286 9.944V14.584C138.24 14.52 137.504 14.6693 137.078 15.032C136.651 15.3947 136.438 16.0453 136.438 16.984V17.144H139.382V21.688ZM160.193 17.144L148.993 43.48H143.105L147.201 34.392L139.937 17.144H146.049L150.177 28.312L154.273 17.144H160.193Z" fill="#1E2330"/>
</svg>
