<svg width="1728" height="1237" viewBox="0 0 1728 1237" fill="none" xmlns="http://www.w3.org/2000/svg">
<path d="M-6.5 57.4999C28.3333 37.1666 111.7 8.69994 166.5 57.4999C221.3 106.3 314.667 77.8333 354.5 57.4999C391.333 42.8332 479.6 22.2999 538 57.4999C596.4 92.7 707 72.1666 755 57.4999C792.333 42.8332 886.6 22.2999 965 57.4999C1043.4 92.7 1146 72.1666 1187.5 57.4999C1231.5 41.9999 1334.1 20.2999 1392.5 57.4999C1450.9 94.7 1559.83 73 1607 57.4999C1669.83 45.1666 1806.2 27.8999 1849 57.4999" stroke="white" stroke-opacity="0.2" stroke-width="0.5"/>
<path d="M-7 81.945C27.8333 61.6117 111.2 33.145 166 81.945C220.8 130.745 314.167 102.278 354 81.945C390.833 67.2783 479.1 46.745 537.5 81.945C595.9 117.145 706.5 96.6117 754.5 81.945C791.833 67.2783 886.1 46.745 964.5 81.945C1042.9 117.145 1145.5 96.6117 1187 81.945C1231 66.445 1333.6 44.745 1392 81.945C1450.4 119.145 1559.33 97.445 1606.5 81.945C1669.33 69.6116 1805.7 52.345 1848.5 81.945" stroke="white" stroke-opacity="0.2" stroke-width="0.5"/>
<path d="M0.5 3.945C35.3333 -16.3883 118.7 -44.855 173.5 3.945C228.3 52.745 321.667 24.2783 361.5 3.945C398.333 -10.7217 486.6 -31.255 545 3.945C603.4 39.1451 714 18.6117 762 3.945C799.333 -10.7217 893.6 -31.255 972 3.945C1050.4 39.1451 1153 18.6117 1194.5 3.945C1238.5 -11.555 1341.1 -33.255 1399.5 3.945C1457.9 41.1451 1566.83 19.445 1614 3.945C1676.83 -8.38835 1813.2 -25.655 1856 3.945" stroke="white" stroke-opacity="0.2" stroke-width="0.5"/>
<path d="M0 28.3901C34.8333 8.05674 118.2 -20.4099 173 28.3901C227.8 77.1901 321.167 48.7234 361 28.3901C397.833 13.7234 486.1 -6.80998 544.5 28.3901C602.9 63.5901 713.5 43.0568 761.5 28.3901C798.833 13.7234 893.1 -6.80998 971.5 28.3901C1049.9 63.5901 1152.5 43.0568 1194 28.3901C1238 12.89 1340.6 -8.80998 1399 28.3901C1457.4 65.5901 1566.33 43.8901 1613.5 28.3901C1676.33 16.0567 1812.7 -1.20998 1855.5 28.3901" stroke="white" stroke-opacity="0.2" stroke-width="0.5"/>
<path d="M-6.5 161.5C28.3333 141.167 111.7 112.7 166.5 161.5C221.3 210.3 314.667 181.833 354.5 161.5C391.333 146.833 479.6 126.3 538 161.5C596.4 196.7 707 176.167 755 161.5C792.333 146.833 886.6 126.3 965 161.5C1043.4 196.7 1146 176.167 1187.5 161.5C1231.5 146 1334.1 124.3 1392.5 161.5C1450.9 198.7 1559.83 177 1607 161.5C1669.83 149.167 1806.2 131.9 1849 161.5" stroke="white" stroke-opacity="0.2" stroke-width="0.5"/>
<path d="M-7 185.945C27.8333 165.612 111.2 137.145 166 185.945C220.8 234.745 314.167 206.278 354 185.945C390.833 171.278 479.1 150.745 537.5 185.945C595.9 221.145 706.5 200.612 754.5 185.945C791.833 171.278 886.1 150.745 964.5 185.945C1042.9 221.145 1145.5 200.612 1187 185.945C1231 170.445 1333.6 148.745 1392 185.945C1450.4 223.145 1559.33 201.445 1606.5 185.945C1669.33 173.612 1805.7 156.345 1848.5 185.945" stroke="white" stroke-opacity="0.2" stroke-width="0.5"/>
<path d="M0.5 107.945C35.3333 87.6117 118.7 59.145 173.5 107.945C228.3 156.745 321.667 128.278 361.5 107.945C398.333 93.2783 486.6 72.745 545 107.945C603.4 143.145 714 122.612 762 107.945C799.333 93.2783 893.6 72.745 972 107.945C1050.4 143.145 1153 122.612 1194.5 107.945C1238.5 92.445 1341.1 70.745 1399.5 107.945C1457.9 145.145 1566.83 123.445 1614 107.945C1676.83 95.6116 1813.2 78.345 1856 107.945" stroke="white" stroke-opacity="0.2" stroke-width="0.5"/>
<path d="M0 132.39C34.8333 112.057 118.2 83.5901 173 132.39C227.8 181.19 321.167 152.723 361 132.39C397.833 117.723 486.1 97.19 544.5 132.39C602.9 167.59 713.5 147.057 761.5 132.39C798.833 117.723 893.1 97.19 971.5 132.39C1049.9 167.59 1152.5 147.057 1194 132.39C1238 116.89 1340.6 95.19 1399 132.39C1457.4 169.59 1566.33 147.89 1613.5 132.39C1676.33 120.057 1812.7 102.79 1855.5 132.39" stroke="white" stroke-opacity="0.2" stroke-width="0.5"/>
<path d="M-6.5 258.5C28.3333 238.167 111.7 209.7 166.5 258.5C221.3 307.3 314.667 278.833 354.5 258.5C391.333 243.833 479.6 223.3 538 258.5C596.4 293.7 707 273.167 755 258.5C792.333 243.833 886.6 223.3 965 258.5C1043.4 293.7 1146 273.167 1187.5 258.5C1231.5 243 1334.1 221.3 1392.5 258.5C1450.9 295.7 1559.83 274 1607 258.5C1669.83 246.167 1806.2 228.9 1849 258.5" stroke="white" stroke-opacity="0.2" stroke-width="0.5"/>
<path d="M-7 282.945C27.8333 262.612 111.2 234.145 166 282.945C220.8 331.745 314.167 303.278 354 282.945C390.833 268.278 479.1 247.745 537.5 282.945C595.9 318.145 706.5 297.612 754.5 282.945C791.833 268.278 886.1 247.745 964.5 282.945C1042.9 318.145 1145.5 297.612 1187 282.945C1231 267.445 1333.6 245.745 1392 282.945C1450.4 320.145 1559.33 298.445 1606.5 282.945C1669.33 270.612 1805.7 253.345 1848.5 282.945" stroke="white" stroke-opacity="0.2" stroke-width="0.5"/>
<path d="M0.5 204.945C35.3333 184.612 118.7 156.145 173.5 204.945C228.3 253.745 321.667 225.278 361.5 204.945C398.333 190.278 486.6 169.745 545 204.945C603.4 240.145 714 219.612 762 204.945C799.333 190.278 893.6 169.745 972 204.945C1050.4 240.145 1153 219.612 1194.5 204.945C1238.5 189.445 1341.1 167.745 1399.5 204.945C1457.9 242.145 1566.83 220.445 1614 204.945C1676.83 192.612 1813.2 175.345 1856 204.945" stroke="white" stroke-opacity="0.2" stroke-width="0.5"/>
<path d="M0 229.39C34.8333 209.057 118.2 180.59 173 229.39C227.8 278.19 321.167 249.723 361 229.39C397.833 214.723 486.1 194.19 544.5 229.39C602.9 264.59 713.5 244.057 761.5 229.39C798.833 214.723 893.1 194.19 971.5 229.39C1049.9 264.59 1152.5 244.057 1194 229.39C1238 213.89 1340.6 192.19 1399 229.39C1457.4 266.59 1566.33 244.89 1613.5 229.39C1676.33 217.057 1812.7 199.79 1855.5 229.39" stroke="white" stroke-opacity="0.2" stroke-width="0.5"/>
<path d="M-6.5 365.5C28.3333 345.167 111.7 316.7 166.5 365.5C221.3 414.3 314.667 385.833 354.5 365.5C391.333 350.833 479.6 330.3 538 365.5C596.4 400.7 707 380.167 755 365.5C792.333 350.833 886.6 330.3 965 365.5C1043.4 400.7 1146 380.167 1187.5 365.5C1231.5 350 1334.1 328.3 1392.5 365.5C1450.9 402.7 1559.83 381 1607 365.5C1669.83 353.167 1806.2 335.9 1849 365.5" stroke="white" stroke-opacity="0.2" stroke-width="0.5"/>
<path d="M-7 389.945C27.8333 369.612 111.2 341.145 166 389.945C220.8 438.745 314.167 410.278 354 389.945C390.833 375.278 479.1 354.745 537.5 389.945C595.9 425.145 706.5 404.612 754.5 389.945C791.833 375.278 886.1 354.745 964.5 389.945C1042.9 425.145 1145.5 404.612 1187 389.945C1231 374.445 1333.6 352.745 1392 389.945C1450.4 427.145 1559.33 405.445 1606.5 389.945C1669.33 377.612 1805.7 360.345 1848.5 389.945" stroke="white" stroke-opacity="0.2" stroke-width="0.5"/>
<path d="M0.5 311.945C35.3333 291.612 118.7 263.145 173.5 311.945C228.3 360.745 321.667 332.278 361.5 311.945C398.333 297.278 486.6 276.745 545 311.945C603.4 347.145 714 326.612 762 311.945C799.333 297.278 893.6 276.745 972 311.945C1050.4 347.145 1153 326.612 1194.5 311.945C1238.5 296.445 1341.1 274.745 1399.5 311.945C1457.9 349.145 1566.83 327.445 1614 311.945C1676.83 299.612 1813.2 282.345 1856 311.945" stroke="white" stroke-opacity="0.2" stroke-width="0.5"/>
<path d="M0 336.39C34.8333 316.057 118.2 287.59 173 336.39C227.8 385.19 321.167 356.723 361 336.39C397.833 321.723 486.1 301.19 544.5 336.39C602.9 371.59 713.5 351.057 761.5 336.39C798.833 321.723 893.1 301.19 971.5 336.39C1049.9 371.59 1152.5 351.057 1194 336.39C1238 320.89 1340.6 299.19 1399 336.39C1457.4 373.59 1566.33 351.89 1613.5 336.39C1676.33 324.057 1812.7 306.79 1855.5 336.39" stroke="white" stroke-opacity="0.2" stroke-width="0.5"/>
<path d="M-6.5 469.5C28.3333 449.167 111.7 420.7 166.5 469.5C221.3 518.3 314.667 489.833 354.5 469.5C391.333 454.833 479.6 434.3 538 469.5C596.4 504.7 707 484.167 755 469.5C792.333 454.833 886.6 434.3 965 469.5C1043.4 504.7 1146 484.167 1187.5 469.5C1231.5 454 1334.1 432.3 1392.5 469.5C1450.9 506.7 1559.83 485 1607 469.5C1669.83 457.167 1806.2 439.9 1849 469.5" stroke="white" stroke-opacity="0.2" stroke-width="0.5"/>
<path d="M-7 493.945C27.8333 473.612 111.2 445.145 166 493.945C220.8 542.745 314.167 514.278 354 493.945C390.833 479.278 479.1 458.745 537.5 493.945C595.9 529.145 706.5 508.612 754.5 493.945C791.833 479.278 886.1 458.745 964.5 493.945C1042.9 529.145 1145.5 508.612 1187 493.945C1231 478.445 1333.6 456.745 1392 493.945C1450.4 531.145 1559.33 509.445 1606.5 493.945C1669.33 481.612 1805.7 464.345 1848.5 493.945" stroke="white" stroke-opacity="0.2" stroke-width="0.5"/>
<path d="M0.5 415.945C35.3333 395.612 118.7 367.145 173.5 415.945C228.3 464.745 321.667 436.278 361.5 415.945C398.333 401.278 486.6 380.745 545 415.945C603.4 451.145 714 430.612 762 415.945C799.333 401.278 893.6 380.745 972 415.945C1050.4 451.145 1153 430.612 1194.5 415.945C1238.5 400.445 1341.1 378.745 1399.5 415.945C1457.9 453.145 1566.83 431.445 1614 415.945C1676.83 403.612 1813.2 386.345 1856 415.945" stroke="white" stroke-opacity="0.2" stroke-width="0.5"/>
<path d="M0 440.39C34.8333 420.057 118.2 391.59 173 440.39C227.8 489.19 321.167 460.723 361 440.39C397.833 425.723 486.1 405.19 544.5 440.39C602.9 475.59 713.5 455.057 761.5 440.39C798.833 425.723 893.1 405.19 971.5 440.39C1049.9 475.59 1152.5 455.057 1194 440.39C1238 424.89 1340.6 403.19 1399 440.39C1457.4 477.59 1566.33 455.89 1613.5 440.39C1676.33 428.057 1812.7 410.79 1855.5 440.39" stroke="white" stroke-opacity="0.2" stroke-width="0.5"/>
<path d="M-6.5 566.5C28.3333 546.167 111.7 517.7 166.5 566.5C221.3 615.3 314.667 586.833 354.5 566.5C391.333 551.833 479.6 531.3 538 566.5C596.4 601.7 707 581.167 755 566.5C792.333 551.833 886.6 531.3 965 566.5C1043.4 601.7 1146 581.167 1187.5 566.5C1231.5 551 1334.1 529.3 1392.5 566.5C1450.9 603.7 1559.83 582 1607 566.5C1669.83 554.167 1806.2 536.9 1849 566.5" stroke="white" stroke-opacity="0.2" stroke-width="0.5"/>
<path d="M-7 590.945C27.8333 570.612 111.2 542.145 166 590.945C220.8 639.745 314.167 611.278 354 590.945C390.833 576.278 479.1 555.745 537.5 590.945C595.9 626.145 706.5 605.612 754.5 590.945C791.833 576.278 886.1 555.745 964.5 590.945C1042.9 626.145 1145.5 605.612 1187 590.945C1231 575.445 1333.6 553.745 1392 590.945C1450.4 628.145 1559.33 606.445 1606.5 590.945C1669.33 578.612 1805.7 561.345 1848.5 590.945" stroke="white" stroke-opacity="0.2" stroke-width="0.5"/>
<path d="M0.5 512.945C35.3333 492.612 118.7 464.145 173.5 512.945C228.3 561.745 321.667 533.278 361.5 512.945C398.333 498.278 486.6 477.745 545 512.945C603.4 548.145 714 527.612 762 512.945C799.333 498.278 893.6 477.745 972 512.945C1050.4 548.145 1153 527.612 1194.5 512.945C1238.5 497.445 1341.1 475.745 1399.5 512.945C1457.9 550.145 1566.83 528.445 1614 512.945C1676.83 500.612 1813.2 483.345 1856 512.945" stroke="white" stroke-opacity="0.2" stroke-width="0.5"/>
<path d="M0 537.39C34.8333 517.057 118.2 488.59 173 537.39C227.8 586.19 321.167 557.723 361 537.39C397.833 522.723 486.1 502.19 544.5 537.39C602.9 572.59 713.5 552.057 761.5 537.39C798.833 522.723 893.1 502.19 971.5 537.39C1049.9 572.59 1152.5 552.057 1194 537.39C1238 521.89 1340.6 500.19 1399 537.39C1457.4 574.59 1566.33 552.89 1613.5 537.39C1676.33 525.057 1812.7 507.79 1855.5 537.39" stroke="white" stroke-opacity="0.2" stroke-width="0.5"/>
<path d="M-6.5 675.5C28.3333 655.167 111.7 626.7 166.5 675.5C221.3 724.3 314.667 695.833 354.5 675.5C391.333 660.833 479.6 640.3 538 675.5C596.4 710.7 707 690.167 755 675.5C792.333 660.833 886.6 640.3 965 675.5C1043.4 710.7 1146 690.167 1187.5 675.5C1231.5 660 1334.1 638.3 1392.5 675.5C1450.9 712.7 1559.83 691 1607 675.5C1669.83 663.167 1806.2 645.9 1849 675.5" stroke="white" stroke-opacity="0.2" stroke-width="0.5"/>
<path d="M-7 699.945C27.8333 679.612 111.2 651.145 166 699.945C220.8 748.745 314.167 720.278 354 699.945C390.833 685.278 479.1 664.745 537.5 699.945C595.9 735.145 706.5 714.612 754.5 699.945C791.833 685.278 886.1 664.745 964.5 699.945C1042.9 735.145 1145.5 714.612 1187 699.945C1231 684.445 1333.6 662.745 1392 699.945C1450.4 737.145 1559.33 715.445 1606.5 699.945C1669.33 687.612 1805.7 670.345 1848.5 699.945" stroke="white" stroke-opacity="0.2" stroke-width="0.5"/>
<path d="M0.5 621.945C35.3333 601.612 118.7 573.145 173.5 621.945C228.3 670.745 321.667 642.278 361.5 621.945C398.333 607.278 486.6 586.745 545 621.945C603.4 657.145 714 636.612 762 621.945C799.333 607.278 893.6 586.745 972 621.945C1050.4 657.145 1153 636.612 1194.5 621.945C1238.5 606.445 1341.1 584.745 1399.5 621.945C1457.9 659.145 1566.83 637.445 1614 621.945C1676.83 609.612 1813.2 592.345 1856 621.945" stroke="white" stroke-opacity="0.2" stroke-width="0.5"/>
<path d="M0 646.39C34.8333 626.057 118.2 597.59 173 646.39C227.8 695.19 321.167 666.723 361 646.39C397.833 631.723 486.1 611.19 544.5 646.39C602.9 681.59 713.5 661.057 761.5 646.39C798.833 631.723 893.1 611.19 971.5 646.39C1049.9 681.59 1152.5 661.057 1194 646.39C1238 630.89 1340.6 609.19 1399 646.39C1457.4 683.59 1566.33 661.89 1613.5 646.39C1676.33 634.057 1812.7 616.79 1855.5 646.39" stroke="white" stroke-opacity="0.2" stroke-width="0.5"/>
<path d="M-6.5 779.5C28.3333 759.167 111.7 730.7 166.5 779.5C221.3 828.3 314.667 799.833 354.5 779.5C391.333 764.833 479.6 744.3 538 779.5C596.4 814.7 707 794.167 755 779.5C792.333 764.833 886.6 744.3 965 779.5C1043.4 814.7 1146 794.167 1187.5 779.5C1231.5 764 1334.1 742.3 1392.5 779.5C1450.9 816.7 1559.83 795 1607 779.5C1669.83 767.167 1806.2 749.9 1849 779.5" stroke="white" stroke-opacity="0.2" stroke-width="0.5"/>
<path d="M-7 803.945C27.8333 783.612 111.2 755.145 166 803.945C220.8 852.745 314.167 824.278 354 803.945C390.833 789.278 479.1 768.745 537.5 803.945C595.9 839.145 706.5 818.612 754.5 803.945C791.833 789.278 886.1 768.745 964.5 803.945C1042.9 839.145 1145.5 818.612 1187 803.945C1231 788.445 1333.6 766.745 1392 803.945C1450.4 841.145 1559.33 819.445 1606.5 803.945C1669.33 791.612 1805.7 774.345 1848.5 803.945" stroke="white" stroke-opacity="0.2" stroke-width="0.5"/>
<path d="M0.5 725.945C35.3333 705.612 118.7 677.145 173.5 725.945C228.3 774.745 321.667 746.278 361.5 725.945C398.333 711.278 486.6 690.745 545 725.945C603.4 761.145 714 740.612 762 725.945C799.333 711.278 893.6 690.745 972 725.945C1050.4 761.145 1153 740.612 1194.5 725.945C1238.5 710.445 1341.1 688.745 1399.5 725.945C1457.9 763.145 1566.83 741.445 1614 725.945C1676.83 713.612 1813.2 696.345 1856 725.945" stroke="white" stroke-opacity="0.2" stroke-width="0.5"/>
<path d="M0 750.39C34.8333 730.057 118.2 701.59 173 750.39C227.8 799.19 321.167 770.723 361 750.39C397.833 735.723 486.1 715.19 544.5 750.39C602.9 785.59 713.5 765.057 761.5 750.39C798.833 735.723 893.1 715.19 971.5 750.39C1049.9 785.59 1152.5 765.057 1194 750.39C1238 734.89 1340.6 713.19 1399 750.39C1457.4 787.59 1566.33 765.89 1613.5 750.39C1676.33 738.057 1812.7 720.79 1855.5 750.39" stroke="white" stroke-opacity="0.2" stroke-width="0.5"/>
<path d="M-6.5 876.5C28.3333 856.167 111.7 827.7 166.5 876.5C221.3 925.3 314.667 896.833 354.5 876.5C391.333 861.833 479.6 841.3 538 876.5C596.4 911.7 707 891.167 755 876.5C792.333 861.833 886.6 841.3 965 876.5C1043.4 911.7 1146 891.167 1187.5 876.5C1231.5 861 1334.1 839.3 1392.5 876.5C1450.9 913.7 1559.83 892 1607 876.5C1669.83 864.167 1806.2 846.9 1849 876.5" stroke="white" stroke-opacity="0.2" stroke-width="0.5"/>
<path d="M-7 900.945C27.8333 880.612 111.2 852.145 166 900.945C220.8 949.745 314.167 921.278 354 900.945C390.833 886.278 479.1 865.745 537.5 900.945C595.9 936.145 706.5 915.612 754.5 900.945C791.833 886.278 886.1 865.745 964.5 900.945C1042.9 936.145 1145.5 915.612 1187 900.945C1231 885.445 1333.6 863.745 1392 900.945C1450.4 938.145 1559.33 916.445 1606.5 900.945C1669.33 888.612 1805.7 871.345 1848.5 900.945" stroke="white" stroke-opacity="0.2" stroke-width="0.5"/>
<path d="M0.5 822.945C35.3333 802.612 118.7 774.145 173.5 822.945C228.3 871.745 321.667 843.278 361.5 822.945C398.333 808.278 486.6 787.745 545 822.945C603.4 858.145 714 837.612 762 822.945C799.333 808.278 893.6 787.745 972 822.945C1050.4 858.145 1153 837.612 1194.5 822.945C1238.5 807.445 1341.1 785.745 1399.5 822.945C1457.9 860.145 1566.83 838.445 1614 822.945C1676.83 810.612 1813.2 793.345 1856 822.945" stroke="white" stroke-opacity="0.2" stroke-width="0.5"/>
<path d="M0 847.39C34.8333 827.057 118.2 798.59 173 847.39C227.8 896.19 321.167 867.723 361 847.39C397.833 832.723 486.1 812.19 544.5 847.39C602.9 882.59 713.5 862.057 761.5 847.39C798.833 832.723 893.1 812.19 971.5 847.39C1049.9 882.59 1152.5 862.057 1194 847.39C1238 831.89 1340.6 810.19 1399 847.39C1457.4 884.59 1566.33 862.89 1613.5 847.39C1676.33 835.057 1812.7 817.79 1855.5 847.39" stroke="white" stroke-opacity="0.2" stroke-width="0.5"/>
<path d="M-6.5 983.5C28.3333 963.167 111.7 934.7 166.5 983.5C221.3 1032.3 314.667 1003.83 354.5 983.5C391.333 968.833 479.6 948.3 538 983.5C596.4 1018.7 707 998.167 755 983.5C792.333 968.833 886.6 948.3 965 983.5C1043.4 1018.7 1146 998.167 1187.5 983.5C1231.5 968 1334.1 946.3 1392.5 983.5C1450.9 1020.7 1559.83 999 1607 983.5C1669.83 971.167 1806.2 953.9 1849 983.5" stroke="white" stroke-opacity="0.2" stroke-width="0.5"/>
<path d="M-7 1007.95C27.8333 987.612 111.2 959.145 166 1007.95C220.8 1056.75 314.167 1028.28 354 1007.95C390.833 993.278 479.1 972.745 537.5 1007.95C595.9 1043.15 706.5 1022.61 754.5 1007.95C791.833 993.278 886.1 972.745 964.5 1007.95C1042.9 1043.15 1145.5 1022.61 1187 1007.95C1231 992.445 1333.6 970.745 1392 1007.95C1450.4 1045.15 1559.33 1023.45 1606.5 1007.95C1669.33 995.612 1805.7 978.345 1848.5 1007.95" stroke="white" stroke-opacity="0.2" stroke-width="0.5"/>
<path d="M0.5 929.945C35.3333 909.612 118.7 881.145 173.5 929.945C228.3 978.745 321.667 950.278 361.5 929.945C398.333 915.278 486.6 894.745 545 929.945C603.4 965.145 714 944.612 762 929.945C799.333 915.278 893.6 894.745 972 929.945C1050.4 965.145 1153 944.612 1194.5 929.945C1238.5 914.445 1341.1 892.745 1399.5 929.945C1457.9 967.145 1566.83 945.445 1614 929.945C1676.83 917.612 1813.2 900.345 1856 929.945" stroke="white" stroke-opacity="0.2" stroke-width="0.5"/>
<path d="M0 954.39C34.8333 934.057 118.2 905.59 173 954.39C227.8 1003.19 321.167 974.723 361 954.39C397.833 939.723 486.1 919.19 544.5 954.39C602.9 989.59 713.5 969.057 761.5 954.39C798.833 939.723 893.1 919.19 971.5 954.39C1049.9 989.59 1152.5 969.057 1194 954.39C1238 938.89 1340.6 917.19 1399 954.39C1457.4 991.59 1566.33 969.89 1613.5 954.39C1676.33 942.057 1812.7 924.79 1855.5 954.39" stroke="white" stroke-opacity="0.2" stroke-width="0.5"/>
<path d="M-6.5 1087.5C28.3333 1067.17 111.7 1038.7 166.5 1087.5C221.3 1136.3 314.667 1107.83 354.5 1087.5C391.333 1072.83 479.6 1052.3 538 1087.5C596.4 1122.7 707 1102.17 755 1087.5C792.333 1072.83 886.6 1052.3 965 1087.5C1043.4 1122.7 1146 1102.17 1187.5 1087.5C1231.5 1072 1334.1 1050.3 1392.5 1087.5C1450.9 1124.7 1559.83 1103 1607 1087.5C1669.83 1075.17 1806.2 1057.9 1849 1087.5" stroke="white" stroke-opacity="0.2" stroke-width="0.5"/>
<path d="M-7 1111.95C27.8333 1091.61 111.2 1063.15 166 1111.95C220.8 1160.75 314.167 1132.28 354 1111.95C390.833 1097.28 479.1 1076.74 537.5 1111.95C595.9 1147.15 706.5 1126.61 754.5 1111.95C791.833 1097.28 886.1 1076.74 964.5 1111.95C1042.9 1147.15 1145.5 1126.61 1187 1111.95C1231 1096.44 1333.6 1074.74 1392 1111.95C1450.4 1149.15 1559.33 1127.45 1606.5 1111.95C1669.33 1099.61 1805.7 1082.34 1848.5 1111.95" stroke="white" stroke-opacity="0.2" stroke-width="0.5"/>
<path d="M0.5 1033.95C35.3333 1013.61 118.7 985.145 173.5 1033.95C228.3 1082.75 321.667 1054.28 361.5 1033.95C398.333 1019.28 486.6 998.745 545 1033.95C603.4 1069.15 714 1048.61 762 1033.95C799.333 1019.28 893.6 998.745 972 1033.95C1050.4 1069.15 1153 1048.61 1194.5 1033.95C1238.5 1018.44 1341.1 996.745 1399.5 1033.95C1457.9 1071.15 1566.83 1049.45 1614 1033.95C1676.83 1021.61 1813.2 1004.34 1856 1033.95" stroke="white" stroke-opacity="0.2" stroke-width="0.5"/>
<path d="M0 1058.39C34.8333 1038.06 118.2 1009.59 173 1058.39C227.8 1107.19 321.167 1078.72 361 1058.39C397.833 1043.72 486.1 1023.19 544.5 1058.39C602.9 1093.59 713.5 1073.06 761.5 1058.39C798.833 1043.72 893.1 1023.19 971.5 1058.39C1049.9 1093.59 1152.5 1073.06 1194 1058.39C1238 1042.89 1340.6 1021.19 1399 1058.39C1457.4 1095.59 1566.33 1073.89 1613.5 1058.39C1676.33 1046.06 1812.7 1028.79 1855.5 1058.39" stroke="white" stroke-opacity="0.2" stroke-width="0.5"/>
<path d="M-6.5 1184.5C28.3333 1164.17 111.7 1135.7 166.5 1184.5C221.3 1233.3 314.667 1204.83 354.5 1184.5C391.333 1169.83 479.6 1149.3 538 1184.5C596.4 1219.7 707 1199.17 755 1184.5C792.333 1169.83 886.6 1149.3 965 1184.5C1043.4 1219.7 1146 1199.17 1187.5 1184.5C1231.5 1169 1334.1 1147.3 1392.5 1184.5C1450.9 1221.7 1559.83 1200 1607 1184.5C1669.83 1172.17 1806.2 1154.9 1849 1184.5" stroke="white" stroke-opacity="0.2" stroke-width="0.5"/>
<path d="M-7 1208.95C27.8333 1188.61 111.2 1160.15 166 1208.95C220.8 1257.75 314.167 1229.28 354 1208.95C390.833 1194.28 479.1 1173.74 537.5 1208.95C595.9 1244.15 706.5 1223.61 754.5 1208.95C791.833 1194.28 886.1 1173.74 964.5 1208.95C1042.9 1244.15 1145.5 1223.61 1187 1208.95C1231 1193.44 1333.6 1171.74 1392 1208.95C1450.4 1246.15 1559.33 1224.45 1606.5 1208.95C1669.33 1196.61 1805.7 1179.34 1848.5 1208.95" stroke="white" stroke-opacity="0.2" stroke-width="0.5"/>
<path d="M0.5 1130.95C35.3333 1110.61 118.7 1082.15 173.5 1130.95C228.3 1179.75 321.667 1151.28 361.5 1130.95C398.333 1116.28 486.6 1095.74 545 1130.95C603.4 1166.15 714 1145.61 762 1130.95C799.333 1116.28 893.6 1095.74 972 1130.95C1050.4 1166.15 1153 1145.61 1194.5 1130.95C1238.5 1115.44 1341.1 1093.74 1399.5 1130.95C1457.9 1168.15 1566.83 1146.45 1614 1130.95C1676.83 1118.61 1813.2 1101.34 1856 1130.95" stroke="white" stroke-opacity="0.2" stroke-width="0.5"/>
<path d="M0 1155.39C34.8333 1135.06 118.2 1106.59 173 1155.39C227.8 1204.19 321.167 1175.72 361 1155.39C397.833 1140.72 486.1 1120.19 544.5 1155.39C602.9 1190.59 713.5 1170.06 761.5 1155.39C798.833 1140.72 893.1 1120.19 971.5 1155.39C1049.9 1190.59 1152.5 1170.06 1194 1155.39C1238 1139.89 1340.6 1118.19 1399 1155.39C1457.4 1192.59 1566.33 1170.89 1613.5 1155.39C1676.33 1143.06 1812.7 1125.79 1855.5 1155.39" stroke="white" stroke-opacity="0.2" stroke-width="0.5"/>
</svg>
