<svg width="1728" height="1108" viewBox="0 0 1728 1108" fill="none" xmlns="http://www.w3.org/2000/svg">
<path d="M-44.5 71.7161C-9.66667 53.854 73.7 28.8471 128.5 71.7161C183.3 114.585 276.667 89.5782 316.5 71.7161C353.333 58.832 441.6 40.7941 500 71.7161C558.4 102.638 669 84.6003 717 71.7161C754.333 58.832 848.6 40.7941 927 71.7161C1005.4 102.638 1108 84.6003 1149.5 71.7161C1193.5 58.0999 1296.1 39.0372 1354.5 71.7161C1412.9 104.395 1521.83 85.3323 1569 71.7161C1631.83 60.8817 1768.2 45.7135 1811 71.7161" stroke="#1E2330" stroke-opacity="0.2" stroke-width="0.5"/>
<path d="M-45 93.1902C-10.1667 75.3281 73.2 50.3212 128 93.1902C182.8 136.059 276.167 111.052 316 93.1902C352.833 80.3061 441.1 62.2683 499.5 93.1902C557.9 124.112 668.5 106.074 716.5 93.1902C753.833 80.3061 848.1 62.2683 926.5 93.1902C1004.9 124.112 1107.5 106.074 1149 93.1902C1193 79.574 1295.6 60.5113 1354 93.1902C1412.4 125.869 1521.33 106.806 1568.5 93.1902C1631.33 82.3558 1767.7 67.1877 1810.5 93.1902" stroke="#1E2330" stroke-opacity="0.2" stroke-width="0.5"/>
<path d="M-37.5 24.6702C-2.66667 6.80812 80.7 -18.1988 135.5 24.6702C190.3 67.5393 283.667 42.5323 323.5 24.6702C360.333 11.7861 448.6 -6.25176 507 24.6702C565.4 55.5922 676 37.5544 724 24.6702C761.333 11.7861 855.6 -6.25176 934 24.6702C1012.4 55.5922 1115 37.5544 1156.5 24.6702C1200.5 11.054 1303.1 -8.00869 1361.5 24.6702C1419.9 57.3491 1528.83 38.2864 1576 24.6702C1638.83 13.8358 1775.2 -1.33237 1818 24.6702" stroke="#1E2330" stroke-opacity="0.2" stroke-width="0.5"/>
<path d="M-38 46.1448C-3.16667 28.2827 80.2 3.27577 135 46.1448C189.8 89.0139 283.167 64.0069 323 46.1448C359.833 33.2607 448.1 15.2228 506.5 46.1448C564.9 77.0668 675.5 59.029 723.5 46.1448C760.833 33.2607 855.1 15.2228 933.5 46.1448C1011.9 77.0668 1114.5 59.029 1156 46.1448C1200 32.5286 1302.6 13.4659 1361 46.1448C1419.4 78.8238 1528.33 59.7611 1575.5 46.1448C1638.33 35.3104 1774.7 20.1422 1817.5 46.1448" stroke="#1E2330" stroke-opacity="0.2" stroke-width="0.5"/>
<path d="M-44.5 163.076C-9.66667 145.214 73.7 120.207 128.5 163.076C183.3 205.946 276.667 180.939 316.5 163.076C353.333 150.192 441.6 132.154 500 163.076C558.4 193.998 669 175.961 717 163.076C754.333 150.192 848.6 132.154 927 163.076C1005.4 193.998 1108 175.961 1149.5 163.076C1193.5 149.46 1296.1 130.398 1354.5 163.076C1412.9 195.755 1521.83 176.693 1569 163.076C1631.83 152.242 1768.2 137.074 1811 163.076" stroke="#1E2330" stroke-opacity="0.2" stroke-width="0.5"/>
<path d="M-45 184.551C-10.1667 166.689 73.2 141.682 128 184.551C182.8 227.42 276.167 202.413 316 184.551C352.833 171.667 441.1 153.629 499.5 184.551C557.9 215.473 668.5 197.435 716.5 184.551C753.833 171.667 848.1 153.629 926.5 184.551C1004.9 215.473 1107.5 197.435 1149 184.551C1193 170.935 1295.6 151.872 1354 184.551C1412.4 217.23 1521.33 198.167 1568.5 184.551C1631.33 173.717 1767.7 158.548 1810.5 184.551" stroke="#1E2330" stroke-opacity="0.2" stroke-width="0.5"/>
<path d="M-37.5 116.031C-2.66667 98.1685 80.7 73.1615 135.5 116.031C190.3 158.9 283.667 133.893 323.5 116.031C360.333 103.146 448.6 85.1086 507 116.031C565.4 146.953 676 128.915 724 116.031C761.333 103.146 855.6 85.1086 934 116.031C1012.4 146.953 1115 128.915 1156.5 116.031C1200.5 102.414 1303.1 83.3517 1361.5 116.031C1419.9 148.709 1528.83 129.647 1576 116.031C1638.83 105.196 1775.2 90.028 1818 116.031" stroke="#1E2330" stroke-opacity="0.2" stroke-width="0.5"/>
<path d="M-38 137.505C-3.16667 119.643 80.2 94.6356 135 137.505C189.8 180.374 283.167 155.367 323 137.505C359.833 124.621 448.1 106.583 506.5 137.505C564.9 168.427 675.5 150.389 723.5 137.505C760.833 124.621 855.1 106.583 933.5 137.505C1011.9 168.427 1114.5 150.389 1156 137.505C1200 123.888 1302.6 104.826 1361 137.505C1419.4 170.184 1528.33 151.121 1575.5 137.505C1638.33 126.67 1774.7 111.502 1817.5 137.505" stroke="#1E2330" stroke-opacity="0.2" stroke-width="0.5"/>
<path d="M-44.5 248.287C-9.66667 230.425 73.7 205.418 128.5 248.287C183.3 291.156 276.667 266.15 316.5 248.287C353.333 235.403 441.6 217.365 500 248.287C558.4 279.209 669 261.172 717 248.287C754.333 235.403 848.6 217.365 927 248.287C1005.4 279.209 1108 261.172 1149.5 248.287C1193.5 234.671 1296.1 215.608 1354.5 248.287C1412.9 280.966 1521.83 261.904 1569 248.287C1631.83 237.453 1768.2 222.285 1811 248.287" stroke="#1E2330" stroke-opacity="0.2" stroke-width="0.5"/>
<path d="M-45 269.762C-10.1667 251.9 73.2 226.893 128 269.762C182.8 312.631 276.167 287.624 316 269.762C352.833 256.878 441.1 238.84 499.5 269.762C557.9 300.684 668.5 282.646 716.5 269.762C753.833 256.878 848.1 238.84 926.5 269.762C1004.9 300.684 1107.5 282.646 1149 269.762C1193 256.146 1295.6 237.083 1354 269.762C1412.4 302.441 1521.33 283.378 1568.5 269.762C1631.33 258.928 1767.7 243.759 1810.5 269.762" stroke="#1E2330" stroke-opacity="0.2" stroke-width="0.5"/>
<path d="M-37.5 201.242C-2.66667 183.379 80.7 158.372 135.5 201.242C190.3 244.111 283.667 219.104 323.5 201.242C360.333 188.357 448.6 170.32 507 201.242C565.4 232.164 676 214.126 724 201.242C761.333 188.357 855.6 170.32 934 201.242C1012.4 232.164 1115 214.126 1156.5 201.242C1200.5 187.625 1303.1 168.563 1361.5 201.242C1419.9 233.92 1528.83 214.858 1576 201.242C1638.83 190.407 1775.2 175.239 1818 201.242" stroke="#1E2330" stroke-opacity="0.2" stroke-width="0.5"/>
<path d="M-38 222.716C-3.16667 204.854 80.2 179.847 135 222.716C189.8 265.585 283.167 240.578 323 222.716C359.833 209.831 448.1 191.794 506.5 222.716C564.9 253.638 675.5 235.6 723.5 222.716C760.833 209.831 855.1 191.794 933.5 222.716C1011.9 253.638 1114.5 235.6 1156 222.716C1200 209.099 1302.6 190.037 1361 222.716C1419.4 255.395 1528.33 236.332 1575.5 222.716C1638.33 211.881 1774.7 196.713 1817.5 222.716" stroke="#1E2330" stroke-opacity="0.2" stroke-width="0.5"/>
<path d="M-44.5 342.284C-9.66667 324.421 73.7 299.414 128.5 342.284C183.3 385.153 276.667 360.146 316.5 342.284C353.333 329.399 441.6 311.362 500 342.284C558.4 373.205 669 355.168 717 342.284C754.333 329.399 848.6 311.362 927 342.284C1005.4 373.205 1108 355.168 1149.5 342.284C1193.5 328.667 1296.1 309.605 1354.5 342.284C1412.9 374.962 1521.83 355.9 1569 342.284C1631.83 331.449 1768.2 316.281 1811 342.284" stroke="#1E2330" stroke-opacity="0.2" stroke-width="0.5"/>
<path d="M-45 363.758C-10.1667 345.896 73.2 320.889 128 363.758C182.8 406.627 276.167 381.62 316 363.758C352.833 350.873 441.1 332.836 499.5 363.758C557.9 394.68 668.5 376.642 716.5 363.758C753.833 350.873 848.1 332.836 926.5 363.758C1004.9 394.68 1107.5 376.642 1149 363.758C1193 350.141 1295.6 331.079 1354 363.758C1412.4 396.437 1521.33 377.374 1568.5 363.758C1631.33 352.923 1767.7 337.755 1810.5 363.758" stroke="#1E2330" stroke-opacity="0.2" stroke-width="0.5"/>
<path d="M-37.5 295.237C-2.66667 277.375 80.7 252.368 135.5 295.237C190.3 338.106 283.667 313.099 323.5 295.237C360.333 282.353 448.6 264.315 507 295.237C565.4 326.159 676 308.121 724 295.237C761.333 282.353 855.6 264.315 934 295.237C1012.4 326.159 1115 308.121 1156.5 295.237C1200.5 281.621 1303.1 262.558 1361.5 295.237C1419.9 327.916 1528.83 308.853 1576 295.237C1638.83 284.403 1775.2 269.235 1818 295.237" stroke="#1E2330" stroke-opacity="0.2" stroke-width="0.5"/>
<path d="M-38 316.712C-3.16667 298.85 80.2 273.843 135 316.712C189.8 359.581 283.167 334.574 323 316.712C359.833 303.828 448.1 285.79 506.5 316.712C564.9 347.634 675.5 329.596 723.5 316.712C760.833 303.828 855.1 285.79 933.5 316.712C1011.9 347.634 1114.5 329.596 1156 316.712C1200 303.096 1302.6 284.033 1361 316.712C1419.4 349.391 1528.33 330.328 1575.5 316.712C1638.33 305.877 1774.7 290.709 1817.5 316.712" stroke="#1E2330" stroke-opacity="0.2" stroke-width="0.5"/>
<path d="M-44.5 433.643C-9.66667 415.781 73.7 390.774 128.5 433.643C183.3 476.512 276.667 451.505 316.5 433.643C353.333 420.759 441.6 402.721 500 433.643C558.4 464.565 669 446.528 717 433.643C754.333 420.759 848.6 402.721 927 433.643C1005.4 464.565 1108 446.528 1149.5 433.643C1193.5 420.027 1296.1 400.964 1354.5 433.643C1412.9 466.322 1521.83 447.26 1569 433.643C1631.83 422.809 1768.2 407.641 1811 433.643" stroke="#1E2330" stroke-opacity="0.2" stroke-width="0.5"/>
<path d="M-45 455.118C-10.1667 437.256 73.2 412.249 128 455.118C182.8 497.987 276.167 472.98 316 455.118C352.833 442.234 441.1 424.196 499.5 455.118C557.9 486.04 668.5 468.002 716.5 455.118C753.833 442.234 848.1 424.196 926.5 455.118C1004.9 486.04 1107.5 468.002 1149 455.118C1193 441.502 1295.6 422.439 1354 455.118C1412.4 487.797 1521.33 468.734 1568.5 455.118C1631.33 444.284 1767.7 429.115 1810.5 455.118" stroke="#1E2330" stroke-opacity="0.2" stroke-width="0.5"/>
<path d="M-37.5 386.597C-2.66667 368.735 80.7 343.728 135.5 386.597C190.3 429.467 283.667 404.46 323.5 386.597C360.333 373.713 448.6 355.675 507 386.597C565.4 417.519 676 399.482 724 386.597C761.333 373.713 855.6 355.675 934 386.597C1012.4 417.519 1115 399.482 1156.5 386.597C1200.5 372.981 1303.1 353.919 1361.5 386.597C1419.9 419.276 1528.83 400.214 1576 386.597C1638.83 375.763 1775.2 360.595 1818 386.597" stroke="#1E2330" stroke-opacity="0.2" stroke-width="0.5"/>
<path d="M-38 408.072C-3.16667 390.209 80.2 365.203 135 408.072C189.8 450.941 283.167 425.934 323 408.072C359.833 395.187 448.1 377.15 506.5 408.072C564.9 438.994 675.5 420.956 723.5 408.072C760.833 395.187 855.1 377.15 933.5 408.072C1011.9 438.994 1114.5 420.956 1156 408.072C1200 394.455 1302.6 375.393 1361 408.072C1419.4 440.751 1528.33 421.688 1575.5 408.072C1638.33 397.237 1774.7 382.069 1817.5 408.072" stroke="#1E2330" stroke-opacity="0.2" stroke-width="0.5"/>
<path d="M-44.5 518.854C-9.66667 500.992 73.7 475.985 128.5 518.854C183.3 561.723 276.667 536.716 316.5 518.854C353.333 505.97 441.6 487.932 500 518.854C558.4 549.776 669 531.738 717 518.854C754.333 505.97 848.6 487.932 927 518.854C1005.4 549.776 1108 531.738 1149.5 518.854C1193.5 505.238 1296.1 486.175 1354.5 518.854C1412.9 551.533 1521.83 532.471 1569 518.854C1631.83 508.02 1768.2 492.852 1811 518.854" stroke="#1E2330" stroke-opacity="0.2" stroke-width="0.5"/>
<path d="M-45 540.329C-10.1667 522.467 73.2 497.46 128 540.329C182.8 583.198 276.167 558.191 316 540.329C352.833 527.445 441.1 509.407 499.5 540.329C557.9 571.251 668.5 553.213 716.5 540.329C753.833 527.445 848.1 509.407 926.5 540.329C1004.9 571.251 1107.5 553.213 1149 540.329C1193 526.713 1295.6 507.65 1354 540.329C1412.4 573.008 1521.33 553.945 1568.5 540.329C1631.33 529.495 1767.7 514.326 1810.5 540.329" stroke="#1E2330" stroke-opacity="0.2" stroke-width="0.5"/>
<path d="M-37.5 471.808C-2.66667 453.946 80.7 428.939 135.5 471.808C190.3 514.677 283.667 489.671 323.5 471.808C360.333 458.924 448.6 440.886 507 471.808C565.4 502.73 676 484.693 724 471.808C761.333 458.924 855.6 440.886 934 471.808C1012.4 502.73 1115 484.693 1156.5 471.808C1200.5 458.192 1303.1 439.129 1361.5 471.808C1419.9 504.487 1528.83 485.425 1576 471.808C1638.83 460.974 1775.2 445.806 1818 471.808" stroke="#1E2330" stroke-opacity="0.2" stroke-width="0.5"/>
<path d="M-38 493.283C-3.16667 475.421 80.2 450.414 135 493.283C189.8 536.152 283.167 511.145 323 493.283C359.833 480.399 448.1 462.361 506.5 493.283C564.9 524.205 675.5 506.167 723.5 493.283C760.833 480.399 855.1 462.361 933.5 493.283C1011.9 524.205 1114.5 506.167 1156 493.283C1200 479.667 1302.6 460.604 1361 493.283C1419.4 525.962 1528.33 506.899 1575.5 493.283C1638.33 482.449 1774.7 467.28 1817.5 493.283" stroke="#1E2330" stroke-opacity="0.2" stroke-width="0.5"/>
<path d="M-44.5 614.607C-9.66667 596.745 73.7 571.738 128.5 614.607C183.3 657.476 276.667 632.469 316.5 614.607C353.333 601.723 441.6 583.685 500 614.607C558.4 645.529 669 627.491 717 614.607C754.333 601.723 848.6 583.685 927 614.607C1005.4 645.529 1108 627.491 1149.5 614.607C1193.5 600.991 1296.1 581.928 1354.5 614.607C1412.9 647.286 1521.83 628.223 1569 614.607C1631.83 603.773 1768.2 588.605 1811 614.607" stroke="#1E2330" stroke-opacity="0.2" stroke-width="0.5"/>
<path d="M-45 636.081C-10.1667 618.219 73.2 593.212 128 636.081C182.8 678.95 276.167 653.943 316 636.081C352.833 623.197 441.1 605.159 499.5 636.081C557.9 667.003 668.5 648.966 716.5 636.081C753.833 623.197 848.1 605.159 926.5 636.081C1004.9 667.003 1107.5 648.966 1149 636.081C1193 622.465 1295.6 603.402 1354 636.081C1412.4 668.76 1521.33 649.698 1568.5 636.081C1631.33 625.247 1767.7 610.079 1810.5 636.081" stroke="#1E2330" stroke-opacity="0.2" stroke-width="0.5"/>
<path d="M-37.5 567.561C-2.66667 549.699 80.7 524.692 135.5 567.561C190.3 610.43 283.667 585.423 323.5 567.561C360.333 554.677 448.6 536.639 507 567.561C565.4 598.483 676 580.445 724 567.561C761.333 554.677 855.6 536.639 934 567.561C1012.4 598.483 1115 580.445 1156.5 567.561C1200.5 553.945 1303.1 534.882 1361.5 567.561C1419.9 600.24 1528.83 581.177 1576 567.561C1638.83 556.726 1775.2 541.558 1818 567.561" stroke="#1E2330" stroke-opacity="0.2" stroke-width="0.5"/>
<path d="M-38 589.035C-3.16667 571.173 80.2 546.166 135 589.035C189.8 631.905 283.167 606.898 323 589.035C359.833 576.151 448.1 558.113 506.5 589.035C564.9 619.957 675.5 601.92 723.5 589.035C760.833 576.151 855.1 558.113 933.5 589.035C1011.9 619.957 1114.5 601.92 1156 589.035C1200 575.419 1302.6 556.357 1361 589.035C1419.4 621.714 1528.33 602.652 1575.5 589.035C1638.33 578.201 1774.7 563.033 1817.5 589.035" stroke="#1E2330" stroke-opacity="0.2" stroke-width="0.5"/>
<path d="M-44.5 705.967C-9.66667 688.105 73.7 663.098 128.5 705.967C183.3 748.836 276.667 723.829 316.5 705.967C353.333 693.083 441.6 675.045 500 705.967C558.4 736.889 669 718.851 717 705.967C754.333 693.083 848.6 675.045 927 705.967C1005.4 736.889 1108 718.851 1149.5 705.967C1193.5 692.351 1296.1 673.288 1354.5 705.967C1412.9 738.646 1521.83 719.583 1569 705.967C1631.83 695.133 1768.2 679.965 1811 705.967" stroke="#1E2330" stroke-opacity="0.2" stroke-width="0.5"/>
<path d="M-45 727.442C-10.1667 709.58 73.2 684.573 128 727.442C182.8 770.311 276.167 745.304 316 727.442C352.833 714.558 441.1 696.52 499.5 727.442C557.9 758.364 668.5 740.326 716.5 727.442C753.833 714.558 848.1 696.52 926.5 727.442C1004.9 758.364 1107.5 740.326 1149 727.442C1193 713.825 1295.6 694.763 1354 727.442C1412.4 760.121 1521.33 741.058 1568.5 727.442C1631.33 716.607 1767.7 701.439 1810.5 727.442" stroke="#1E2330" stroke-opacity="0.2" stroke-width="0.5"/>
<path d="M-37.5 658.922C-2.66667 641.06 80.7 616.053 135.5 658.922C190.3 701.791 283.667 676.784 323.5 658.922C360.333 646.038 448.6 628 507 658.922C565.4 689.844 676 671.806 724 658.922C761.333 646.038 855.6 628 934 658.922C1012.4 689.844 1115 671.806 1156.5 658.922C1200.5 645.305 1303.1 626.243 1361.5 658.922C1419.9 691.601 1528.83 672.538 1576 658.922C1638.83 648.087 1775.2 632.919 1818 658.922" stroke="#1E2330" stroke-opacity="0.2" stroke-width="0.5"/>
<path d="M-38 680.396C-3.16667 662.534 80.2 637.527 135 680.396C189.8 723.265 283.167 698.258 323 680.396C359.833 667.512 448.1 649.474 506.5 680.396C564.9 711.318 675.5 693.28 723.5 680.396C760.833 667.512 855.1 649.474 933.5 680.396C1011.9 711.318 1114.5 693.28 1156 680.396C1200 666.78 1302.6 647.717 1361 680.396C1419.4 713.075 1528.33 694.012 1575.5 680.396C1638.33 669.561 1774.7 654.393 1817.5 680.396" stroke="#1E2330" stroke-opacity="0.2" stroke-width="0.5"/>
<path d="M-44.5 791.178C-9.66667 773.316 73.7 748.309 128.5 791.178C183.3 834.047 276.667 809.04 316.5 791.178C353.333 778.294 441.6 760.256 500 791.178C558.4 822.1 669 804.062 717 791.178C754.333 778.294 848.6 760.256 927 791.178C1005.4 822.1 1108 804.062 1149.5 791.178C1193.5 777.562 1296.1 758.499 1354.5 791.178C1412.9 823.857 1521.83 804.794 1569 791.178C1631.83 780.344 1768.2 765.175 1811 791.178" stroke="#1E2330" stroke-opacity="0.2" stroke-width="0.5"/>
<path d="M-45 812.653C-10.1667 794.791 73.2 769.784 128 812.653C182.8 855.522 276.167 830.515 316 812.653C352.833 799.768 441.1 781.731 499.5 812.653C557.9 843.575 668.5 825.537 716.5 812.653C753.833 799.768 848.1 781.731 926.5 812.653C1004.9 843.575 1107.5 825.537 1149 812.653C1193 799.036 1295.6 779.974 1354 812.653C1412.4 845.332 1521.33 826.269 1568.5 812.653C1631.33 801.818 1767.7 786.65 1810.5 812.653" stroke="#1E2330" stroke-opacity="0.2" stroke-width="0.5"/>
<path d="M-37.5 744.133C-2.66667 726.271 80.7 701.264 135.5 744.133C190.3 787.002 283.667 761.995 323.5 744.133C360.333 731.248 448.6 713.211 507 744.133C565.4 775.055 676 757.017 724 744.133C761.333 731.248 855.6 713.211 934 744.133C1012.4 775.055 1115 757.017 1156.5 744.133C1200.5 730.516 1303.1 711.454 1361.5 744.133C1419.9 776.812 1528.83 757.749 1576 744.133C1638.83 733.298 1775.2 718.13 1818 744.133" stroke="#1E2330" stroke-opacity="0.2" stroke-width="0.5"/>
<path d="M-38 765.607C-3.16667 747.745 80.2 722.738 135 765.607C189.8 808.476 283.167 783.469 323 765.607C359.833 752.723 448.1 734.685 506.5 765.607C564.9 796.529 675.5 778.491 723.5 765.607C760.833 752.723 855.1 734.685 933.5 765.607C1011.9 796.529 1114.5 778.491 1156 765.607C1200 751.991 1302.6 732.928 1361 765.607C1419.4 798.286 1528.33 779.223 1575.5 765.607C1638.33 754.773 1774.7 739.605 1817.5 765.607" stroke="#1E2330" stroke-opacity="0.2" stroke-width="0.5"/>
<path d="M-77.5 885.174C-42.6667 867.312 40.7 842.305 95.5 885.174C150.3 928.043 243.667 903.036 283.5 885.174C320.333 872.29 408.6 854.252 467 885.174C525.4 916.096 636 898.058 684 885.174C721.333 872.29 815.6 854.252 894 885.174C972.4 916.096 1075 898.058 1116.5 885.174C1160.5 871.558 1263.1 852.495 1321.5 885.174C1379.9 917.853 1488.83 898.79 1536 885.174C1598.83 874.34 1735.2 859.172 1778 885.174" stroke="#1E2330" stroke-opacity="0.2" stroke-width="0.5"/>
<path d="M-78 906.648C-43.1667 888.786 40.2 863.779 95 906.648C149.8 949.517 243.167 924.51 283 906.648C319.833 893.764 408.1 875.726 466.5 906.648C524.9 937.57 635.5 919.532 683.5 906.648C720.833 893.764 815.1 875.726 893.5 906.648C971.9 937.57 1074.5 919.532 1116 906.648C1160 893.032 1262.6 873.969 1321 906.648C1379.4 939.327 1488.33 920.264 1535.5 906.648C1598.33 895.814 1734.7 880.646 1777.5 906.648" stroke="#1E2330" stroke-opacity="0.2" stroke-width="0.5"/>
<path d="M-70.5 838.128C-35.6667 820.266 47.7 795.259 102.5 838.128C157.3 880.997 250.667 855.99 290.5 838.128C327.333 825.244 415.6 807.206 474 838.128C532.4 869.05 643 851.012 691 838.128C728.333 825.244 822.6 807.206 901 838.128C979.4 869.05 1082 851.012 1123.5 838.128C1167.5 824.512 1270.1 805.449 1328.5 838.128C1386.9 870.807 1495.83 851.744 1543 838.128C1605.83 827.294 1742.2 812.126 1785 838.128" stroke="#1E2330" stroke-opacity="0.2" stroke-width="0.5"/>
<path d="M-71 859.602C-36.1667 841.74 47.2 816.733 102 859.602C156.8 902.471 250.167 877.464 290 859.602C326.833 846.718 415.1 828.68 473.5 859.602C531.9 890.524 642.5 872.487 690.5 859.602C727.833 846.718 822.1 828.68 900.5 859.602C978.9 890.524 1081.5 872.487 1123 859.602C1167 845.986 1269.6 826.923 1328 859.602C1386.4 892.281 1495.33 873.219 1542.5 859.602C1605.33 848.768 1741.7 833.6 1784.5 859.602" stroke="#1E2330" stroke-opacity="0.2" stroke-width="0.5"/>
<path d="M-77.5 976.534C-42.6667 958.672 40.7 933.665 95.5 976.534C150.3 1019.4 243.667 994.396 283.5 976.534C320.333 963.65 408.6 945.612 467 976.534C525.4 1007.46 636 989.418 684 976.534C721.333 963.65 815.6 945.612 894 976.534C972.4 1007.46 1075 989.418 1116.5 976.534C1160.5 962.918 1263.1 943.855 1321.5 976.534C1379.9 1009.21 1488.83 990.15 1536 976.534C1598.83 965.7 1735.2 950.531 1778 976.534" stroke="#1E2330" stroke-opacity="0.2" stroke-width="0.5"/>
<path d="M-78 998.009C-43.1667 980.146 40.2 955.14 95 998.009C149.8 1040.88 243.167 1015.87 283 998.009C319.833 985.124 408.1 967.087 466.5 998.009C524.9 1028.93 635.5 1010.89 683.5 998.009C720.833 985.124 815.1 967.087 893.5 998.009C971.9 1028.93 1074.5 1010.89 1116 998.009C1160 984.392 1262.6 965.33 1321 998.009C1379.4 1030.69 1488.33 1011.62 1535.5 998.009C1598.33 987.174 1734.7 972.006 1777.5 998.009" stroke="#1E2330" stroke-opacity="0.2" stroke-width="0.5"/>
<path d="M-70.5 929.489C-35.6667 911.626 47.7 886.62 102.5 929.489C157.3 972.358 250.667 947.351 290.5 929.489C327.333 916.604 415.6 898.567 474 929.489C532.4 960.411 643 942.373 691 929.489C728.333 916.604 822.6 898.567 901 929.489C979.4 960.411 1082 942.373 1123.5 929.489C1167.5 915.872 1270.1 896.81 1328.5 929.489C1386.9 962.168 1495.83 943.105 1543 929.489C1605.83 918.654 1742.2 903.486 1785 929.489" stroke="#1E2330" stroke-opacity="0.2" stroke-width="0.5"/>
<path d="M-71 950.963C-36.1667 933.101 47.2 908.094 102 950.963C156.8 993.832 250.167 968.825 290 950.963C326.833 938.079 415.1 920.041 473.5 950.963C531.9 981.885 642.5 963.847 690.5 950.963C727.833 938.079 822.1 920.041 900.5 950.963C978.9 981.885 1081.5 963.847 1123 950.963C1167 937.347 1269.6 918.284 1328 950.963C1386.4 983.642 1495.33 964.579 1542.5 950.963C1605.33 940.129 1741.7 924.961 1784.5 950.963" stroke="#1E2330" stroke-opacity="0.2" stroke-width="0.5"/>
<path d="M-77.5 1061.75C-42.6667 1043.88 40.7 1018.88 95.5 1061.75C150.3 1104.61 243.667 1079.61 283.5 1061.75C320.333 1048.86 408.6 1030.82 467 1061.75C525.4 1092.67 636 1074.63 684 1061.75C721.333 1048.86 815.6 1030.82 894 1061.75C972.4 1092.67 1075 1074.63 1116.5 1061.75C1160.5 1048.13 1263.1 1029.07 1321.5 1061.75C1379.9 1094.42 1488.83 1075.36 1536 1061.75C1598.83 1050.91 1735.2 1035.74 1778 1061.75" stroke="#1E2330" stroke-opacity="0.2" stroke-width="0.5"/>
<path d="M-78 1083.22C-43.1667 1065.36 40.2 1040.35 95 1083.22C149.8 1126.09 243.167 1101.08 283 1083.22C319.833 1070.34 408.1 1052.3 466.5 1083.22C524.9 1114.14 635.5 1096.1 683.5 1083.22C720.833 1070.34 815.1 1052.3 893.5 1083.22C971.9 1114.14 1074.5 1096.1 1116 1083.22C1160 1069.6 1262.6 1050.54 1321 1083.22C1379.4 1115.9 1488.33 1096.84 1535.5 1083.22C1598.33 1072.39 1734.7 1057.22 1777.5 1083.22" stroke="#1E2330" stroke-opacity="0.2" stroke-width="0.5"/>
<path d="M-70.5 1014.7C-35.6667 996.837 47.7 971.83 102.5 1014.7C157.3 1057.57 250.667 1032.56 290.5 1014.7C327.333 1001.82 415.6 983.778 474 1014.7C532.4 1045.62 643 1027.58 691 1014.7C728.333 1001.82 822.6 983.778 901 1014.7C979.4 1045.62 1082 1027.58 1123.5 1014.7C1167.5 1001.08 1270.1 982.021 1328.5 1014.7C1386.9 1047.38 1495.83 1028.32 1543 1014.7C1605.83 1003.87 1742.2 988.697 1785 1014.7" stroke="#1E2330" stroke-opacity="0.2" stroke-width="0.5"/>
<path d="M-71 1036.17C-36.1667 1018.31 47.2 993.305 102 1036.17C156.8 1079.04 250.167 1054.04 290 1036.17C326.833 1023.29 415.1 1005.25 473.5 1036.17C531.9 1067.1 642.5 1049.06 690.5 1036.17C727.833 1023.29 822.1 1005.25 900.5 1036.17C978.9 1067.1 1081.5 1049.06 1123 1036.17C1167 1022.56 1269.6 1003.5 1328 1036.17C1386.4 1068.85 1495.33 1049.79 1542.5 1036.17C1605.33 1025.34 1741.7 1010.17 1784.5 1036.17" stroke="#1E2330" stroke-opacity="0.2" stroke-width="0.5"/>
</svg>
